<svg width="20" height="4" viewBox="0 0 20 4" fill="none" xmlns="http://www.w3.org/2000/svg">
<path d="M20 1.94401C20.0001 2.13763 19.955 2.32917 19.8675 2.50664C19.78 2.6841 19.6521 2.84365 19.4916 2.9753C19.1059 3.28258 18.6003 3.4451 18.0816 3.42853H1.85529C0.630798 3.42853 0 2.68299 0 1.94729C0.00231247 1.74666 0.0512749 1.54859 0.143835 1.36544C0.236394 1.18228 0.37057 1.01795 0.538004 0.882689C0.705438 0.747429 0.902545 0.644133 1.11705 0.579235C1.33155 0.514337 1.55885 0.489226 1.78479 0.505468H18.1967C18.4225 0.492147 18.6491 0.519076 18.863 0.584662C19.0769 0.650249 19.2738 0.75316 19.4419 0.887298C19.6101 1.02144 19.7461 1.18407 19.842 1.36558C19.9378 1.54709 19.9916 1.74379 20 1.94401Z" fill="#237FBD"/>
</svg>
