<svg width="7" height="4" viewBox="0 0 7 4" fill="none" xmlns="http://www.w3.org/2000/svg">
<path d="M7 2.06218C7.00008 2.25579 6.95496 2.44734 6.86749 2.6248C6.78001 2.80226 6.65206 2.96182 6.49165 3.09346C6.10588 3.40075 5.60028 3.56327 5.08163 3.5467H1.85529C0.630798 3.5467 0 2.80115 0 2.06546C0.00231247 1.86482 0.0512749 1.66676 0.143835 1.4836C0.236394 1.30044 0.37057 1.13611 0.538004 1.00085C0.705438 0.865593 0.902545 0.762297 1.11705 0.697399C1.33155 0.632501 1.55885 0.60739 1.78479 0.623632H5.19666C5.42253 0.610311 5.64911 0.63724 5.86301 0.702826C6.07691 0.768413 6.27376 0.871324 6.44191 1.00546C6.61007 1.1396 6.7461 1.30224 6.84197 1.48375C6.93783 1.66526 6.99157 1.86195 7 2.06218Z" fill="#237FBD"/>
</svg>
